<svg xmlns="http://www.w3.org/2000/svg" viewBox="0 0 256 257" preserveAspectRatio="xMidYMid">
  <defs>
    <linearGradient x1="100%" y1="100%" x2="0%" y2="0%" id="linearGradient-1">
      <stop stop-color="#FFEA83" offset="0%"></stop>
      <stop stop-color="#FFDD35" offset="8.333%"></stop>
      <stop stop-color="#FFA800" offset="100%"></stop>
    </linearGradient>
    <linearGradient x1="50%" y1="0%" x2="50%" y2="100%" id="linearGradient-2">
      <stop stop-color="#2B2E3A" offset="0%"></stop>
      <stop stop-color="#5A6393" offset="100%"></stop>
    </linearGradient>
  </defs>
  <g>
    <path d="M255.153 37.938L134.897 252.976c-2.483 4.485-8.862 4.514-11.387.054L.875 37.958C-1.831 33.177 1.784 27 7.217 27H248.83c5.46 0 9.079 6.23 6.34 11.016z" fill="url(#linearGradient-1)"></path>
    <path d="M185.432.063L96.44 185.94c-1.856 3.75-7.27 3.945-9.395.334L50.126 122.39c-1.439-2.395-1.45-5.4-.03-7.8L112.77.635C114.21-1.77 116.94-.072 116.94 2.622v63.65c0 1.094.891 1.982 1.99 1.982h66.467c2.86 0 4.71 3.038 3.44 5.597z" fill="url(#linearGradient-2)"></path>
  </g>
</svg>